{
  "asset": { "version": "2.0" },
  "scene": 0,
  "scenes": [{ "nodes": [0] }],
  "nodes": [{ "mesh": 0 }],
  "buffers": [{
    "uri": "data:application/octet-stream;base64,",
    "byteLength": 72
  }],
  "bufferViews": [
    { "buffer": 0, "byteOffset": 0, "byteLength": 36 },
    { "buffer": 0, "byteOffset": 36, "byteLength": 24 },
    { "buffer": 0, "byteOffset": 60, "byteLength": 12 }
  ],
  "accessors": [
    { "bufferView": 0, "componentType": 5126, "count": 3, "type": "VEC3", "max": [1.0, 1.0, 0.0], "min": [0.0, 0.0, 0.0] },
    { "bufferView": 1, "componentType": 5126, "count": 3, "type": "VEC2" },
    { "bufferView": 2, "componentType": 5125, "count": 3, "type": "SCALAR" }
  ],
  "images": [{ "uri": "dummy_texture.png" }],
  "textures": [{ "source": 0 }],
  "materials": [{ "pbrMetallicRoughness": { "baseColorTexture": { "index": 0 } } }],
  "meshes": [{
    "name": "triangle",
    "primitives": [{
      "attributes": { "POSITION": 0, "TEXCOORD_0": 1 },
      "indices": 2,
      "material": 0
    }]
  }]
}
